# Blender 3.6.2
# www.blender.org
mtllib test_rock2.mtl
o Icosphere.002
v -0.705381 -0.836694 0.066621
v 1.030351 0.321564 -0.092845
v -0.933448 0.482442 0.051283
v -0.767105 -0.152949 -0.749535
v 0.425941 -0.298122 -0.950443
v -0.176085 0.937226 -0.514046
v 0.176085 -0.937226 0.514046
v 0.851832 -0.268961 0.522109
v 0.515895 -0.850956 -0.283337
v -0.249854 -0.068166 1.051936
v 0.236452 0.876934 0.604540
v -0.306756 0.540957 0.840145
v 0.334944 0.628868 -0.764797
vn -0.4110 -0.6169 0.6712
vn -0.8519 -0.1414 0.5042
vn 0.8678 -0.3188 -0.3812
vn 0.7451 0.3597 0.5617
vn -0.9829 -0.1707 -0.0687
vn -0.1969 -0.7588 -0.6208
vn 0.7253 0.2029 -0.6578
vn 0.4870 0.8632 -0.1331
vn -0.3946 0.8982 0.1939
vn -0.6910 0.4895 -0.5319
vn -0.1419 0.1810 -0.9732
vn -0.2473 0.3308 -0.9107
vn 0.4790 0.8725 -0.0967
vn -0.4195 0.8670 0.2690
vn -0.7804 0.1391 0.6096
vn 0.1905 0.3382 0.9216
vn 0.4528 0.1804 0.8732
vn 0.9169 -0.3854 -0.1039
vn -0.1844 -0.7688 -0.6123
vn 0.3491 -0.3635 0.8637
vn -0.0482 -0.9906 -0.1277
vn 0.6851 -0.6954 0.2167
vt 0.727273 0.000000
vt 0.805311 0.137153
vt 0.572377 0.139429
vt 0.681408 0.288606
vt 0.318798 0.157461
vt 0.341334 0.274305
vt 0.159516 0.274305
vt 0.136980 0.157461
vt 0.014940 0.289045
vt 0.523152 0.274305
vt 0.551556 0.139429
vt 0.272728 0.393651
vt 0.067460 0.431766
vt 0.893102 0.289045
vt 0.818182 0.393651
vt 0.648662 0.412450
vt 0.409092 0.393651
vt 0.477581 0.432483
vt 0.136365 0.393651
vt 0.818182 0.236191
vt 0.863935 0.116845
vt 1.000000 0.157461
vt 0.932126 0.039899
vt 0.363637 0.078731
vt 0.194117 0.059932
s 0
f 7/1/1 10/2/1 1/3/1
f 1/3/2 10/2/2 3/4/2
f 9/5/3 5/6/3 2/7/3
f 8/8/4 2/7/4 11/9/4
f 1/3/5 3/4/5 4/10/5
f 1/11/6 4/10/6 5/6/6
f 2/7/7 5/6/7 13/12/7
f 11/9/8 2/7/8 6/13/8
f 3/4/9 11/14/9 6/15/9
f 4/10/10 3/4/10 6/16/10
f 5/6/11 4/10/11 13/17/11
f 13/17/12 4/10/12 6/18/12
f 6/13/13 2/7/13 13/19/13
f 12/20/14 11/14/14 3/4/14
f 3/4/15 10/2/15 12/20/15
f 12/20/16 10/21/16 11/14/16
f 10/21/17 8/22/17 11/14/17
f 8/8/18 9/5/18 2/7/18
f 9/5/19 1/11/19 5/6/19
f 7/23/20 8/22/20 10/21/20
f 9/5/21 7/24/21 1/11/21
f 7/25/22 9/5/22 8/8/22
