# Blender 3.6.2
# www.blender.org
mtllib test_rock1.mtl
o Icosphere.001
v -0.705381 -0.836694 0.066621
v 1.030351 0.321564 -0.092845
v -0.933448 0.482442 0.051283
v -0.767105 -0.152949 -0.749535
v 0.425941 -0.298122 -0.950443
v -0.000000 0.910769 -0.658104
v 0.176085 -0.937226 0.514046
v 0.851832 -0.268961 0.522109
v 0.515895 -0.850956 -0.283337
v -0.295336 0.155328 1.072965
v 0.236452 0.876934 0.604540
vn -0.4268 -0.5510 0.7171
vn -0.8594 -0.1429 0.4910
vn 0.8678 -0.3188 -0.3812
vn 0.7451 0.3597 0.5617
vn -0.9829 -0.1707 -0.0687
vn -0.1969 -0.7588 -0.6208
vn 0.6027 0.3818 -0.7007
vn 0.5260 0.8471 -0.0758
vn -0.3569 0.9296 0.0917
vn -0.6552 0.5196 -0.5484
vn -0.1412 0.1854 -0.9725
vn -0.4845 0.6987 0.5263
vn 0.4828 0.1979 0.8531
vn 0.9169 -0.3854 -0.1039
vn -0.1844 -0.7688 -0.6123
vn 0.3096 -0.3238 0.8941
vn -0.0482 -0.9906 -0.1277
vn 0.6851 -0.6954 0.2167
vt 0.727273 0.000000
vt 0.809435 0.168881
vt 0.572377 0.139429
vt 0.681408 0.288606
vt 0.318798 0.157461
vt 0.341334 0.274305
vt 0.159516 0.274305
vt 0.136980 0.157461
vt 0.014940 0.289045
vt 0.523152 0.274305
vt 0.551556 0.139429
vt 0.272728 0.393651
vt 0.089534 0.419556
vt 0.893102 0.289045
vt 0.818182 0.393651
vt 0.648662 0.412450
vt 0.455640 0.420043
vt 0.849278 0.155078
vt 1.000000 0.157461
vt 0.932126 0.039899
vt 0.363637 0.078731
vt 0.194117 0.059932
s 0
f 7/1/1 10/2/1 1/3/1
f 1/3/2 10/2/2 3/4/2
f 9/5/3 5/6/3 2/7/3
f 8/8/4 2/7/4 11/9/4
f 1/3/5 3/4/5 4/10/5
f 1/11/6 4/10/6 5/6/6
f 2/7/7 5/6/7 6/12/7
f 11/9/8 2/7/8 6/13/8
f 3/4/9 11/14/9 6/15/9
f 4/10/10 3/4/10 6/16/10
f 5/6/11 4/10/11 6/17/11
f 10/2/12 11/14/12 3/4/12
f 10/18/13 8/19/13 11/14/13
f 8/8/14 9/5/14 2/7/14
f 9/5/15 1/11/15 5/6/15
f 7/20/16 8/19/16 10/18/16
f 9/5/17 7/21/17 1/11/17
f 7/22/18 9/5/18 8/8/18
