# Blender 3.6.2
# www.blender.org
mtllib test_tree.mtl
o Icosphere
v 0.340688 -0.121575 -0.501091
v -0.205035 0.740128 -0.996005
v 0.805678 0.068180 -1.095352
v 0.464055 0.719820 -0.800353
v 0.591962 0.636900 -1.471212
v -0.118152 0.245331 -0.362216
v -0.160613 0.018370 -1.188471
v -0.002424 -1.622185 -0.510498
v -0.674733 -1.737047 -0.173601
v -0.677730 -1.592578 -0.157846
v -1.049120 -1.734538 -0.326410
v -0.008934 -1.674959 -0.421274
v -0.065223 -1.682149 -0.043067
v -0.185408 -1.451706 0.097244
v 0.210235 -0.269038 -0.184479
v 0.003402 -0.142624 -0.291285
v -0.107368 -0.124917 -0.078686
v -0.118409 0.488322 -0.177502
v 0.118721 0.592905 0.572975
v 0.322490 0.185937 -1.022181
v 0.286207 -0.145523 -0.125343
v 0.104939 -0.118462 0.101975
v 0.426567 0.142406 0.203742
v 0.334288 0.083731 0.023789
v -0.198084 0.037565 -0.198967
v -0.141623 0.046403 0.161424
v 0.023985 -0.894397 -0.163195
v -0.196386 -0.893586 -0.280634
v -0.327555 -0.951828 -0.066467
v -0.098007 -1.655487 -0.459948
v 0.001364 -1.835078 -0.673047
v -0.415877 -1.707644 -0.301912
v -0.606354 -1.591157 -0.302991
v -1.055188 -1.726624 -0.299218
v 0.059350 -1.868431 -0.768561
v 0.041082 -1.772293 -0.616520
v -0.120825 -1.676778 0.068808
v 0.108228 -1.723269 0.372653
v -0.065414 -1.610286 0.127565
v -0.020475 -1.604951 0.057051
v 0.164299 -1.762301 0.456749
v -0.088855 -0.900969 0.056625
v 0.063200 -0.282701 0.021424
v 0.103114 0.111912 0.083074
v 0.163876 0.237599 -0.130827
v -0.039577 0.434734 -0.079759
v 0.005130 0.505095 -0.158099
v -0.177997 0.496575 0.042196
v -0.216064 0.560291 0.021649
v -0.243690 0.492875 0.024562
v -0.106355 0.496085 0.406079
v -0.109979 0.544237 0.401872
v -0.152323 0.541002 0.430005
v -0.148315 0.493157 0.433893
v 0.133537 0.591717 0.547670
v 0.184317 -0.052589 -0.374932
v 0.056251 0.134020 -0.266161
v 0.317720 0.088343 -0.288665
v 0.227238 0.202792 -0.696269
v 0.348439 -0.012022 -0.429670
v 0.197602 0.112814 -0.395819
v 0.270808 0.181107 -0.670479
v 0.265648 0.226133 -0.658515
v 0.323520 0.159458 -1.019502
v 0.501324 0.036537 0.146932
v 0.467891 0.058543 0.239816
v 0.811012 0.316038 0.190987
v -0.234648 -0.053924 -0.212458
v -0.218756 -0.046655 -0.307024
v -0.162472 0.031270 -0.294864
v -0.463505 0.206404 -0.273387
v -0.449390 0.162624 -0.320729
v -0.409663 0.189716 -0.311727
v -0.516621 0.359794 -0.255793
v -0.067028 0.105817 -0.074412
v -0.171542 -0.020706 0.280664
v -0.070317 0.041028 0.236172
v -0.307211 0.157238 0.327327
v -0.304123 0.108196 0.288000
v -0.278045 0.138237 0.269597
v -0.354588 0.274420 0.309622
v -0.189416 0.239906 -0.497657
v -0.653680 0.115109 0.043685
v -0.588014 0.508284 -0.624050
v -0.530822 0.510223 -0.121073
v -0.924529 0.505959 -0.315993
v -0.173688 0.085677 -0.144680
v -0.634935 -0.067719 -0.397430
v 0.741498 0.920767 0.531083
v -0.572724 1.273067 0.651657
v 0.096855 0.370471 0.245016
v 0.270224 0.757393 -0.067208
v -0.126632 1.335872 0.122900
v -0.519759 0.601790 0.022019
v 0.530035 1.273594 1.011979
v -0.091514 1.327145 1.062288
v 0.240402 1.484009 0.620197
v 0.287496 0.728155 1.072797
v -0.481016 0.661251 0.770519
v -0.057719 0.519321 0.834743
v -0.577489 0.954609 0.050770
v -0.249832 0.302612 0.517124
v -0.520584 0.099786 0.168744
v -0.179044 0.071532 0.359242
v -0.162441 0.192214 0.194531
v -0.369883 0.223083 0.102674
v -0.273167 -0.004299 0.142266
v -0.445927 0.409640 0.491653
v -0.582177 0.281089 0.369612
v -0.432854 0.404969 0.302586
v -0.466289 0.174793 0.502083
v -0.364012 0.237666 0.552506
v -0.224681 0.375236 0.393634
v -0.334929 0.334974 0.184254
v -0.563209 0.223501 0.215717
v -0.468923 0.012733 0.325351
v -0.384164 0.070367 0.449666
v -0.136326 0.250722 0.322045
v -0.349341 0.078639 0.081165
v 0.881198 0.548879 -0.242547
v 0.768872 0.137376 0.645547
v 0.553009 0.080052 -0.117956
v 0.292664 0.324899 0.094241
v 0.458022 0.387526 0.523799
v 0.376281 -0.073797 0.328160
v 1.125634 0.766023 0.075576
v 1.145619 0.505213 0.446148
v 0.835370 0.756546 0.327748
v 1.169794 0.289553 0.089874
v 1.095640 0.417114 -0.129272
v 0.667802 0.696222 -0.101700
v 0.525092 0.614537 0.356690
v 0.897418 0.388374 0.639448
v 0.919753 -0.039242 0.346926
v 0.976824 0.077689 0.047047
v 0.438371 0.443603 -0.126001
v 0.397693 0.094472 0.525121
vn -0.3962 0.1163 0.9108
vn -0.5774 -0.5709 -0.5837
vn 0.3596 -0.6733 0.6460
vn 0.8407 -0.5168 -0.1616
vn 0.4607 0.7210 0.5176
vn -0.7068 0.6978 -0.1166
vn 0.3983 0.4170 -0.8170
vn -0.6304 -0.2068 0.7482
vn 0.4372 0.3744 -0.8178
vn -0.3080 0.2107 -0.9278
vn -0.4769 0.1368 0.8683
vn -0.4882 0.1490 0.8599
vn 0.2592 0.0258 0.9655
vn -0.3824 -0.7867 0.4847
vn -0.3162 -0.3989 -0.8607
vn -0.3116 -0.5169 -0.7973
vn -0.4820 0.1701 -0.8595
vn -0.4332 -0.1066 0.8950
vn -0.3708 -0.2204 0.9022
vn 0.0717 -0.9939 0.0833
vn 0.0967 -0.9948 -0.0330
vn 0.0779 -0.9969 -0.0074
vn -0.0372 -0.9243 -0.3798
vn 0.0775 0.7610 -0.6441
vn 0.2372 0.8067 0.5414
vn -0.5343 0.5069 -0.6764
vn 0.0365 0.0504 -0.9981
vn -0.3143 -0.1094 0.9430
vn -0.1105 -0.9606 0.2549
vn -0.2758 0.9047 -0.3249
vn 0.6183 -0.6286 0.4718
vn 0.6606 0.5889 0.4656
vn -0.7846 0.1156 0.6091
vn -0.3181 -0.9231 -0.2163
vn 0.6239 0.2965 -0.7231
vn 0.7021 0.2819 0.6539
vn -0.0680 0.9272 -0.3684
vn -0.8054 0.3082 -0.5063
vn 0.5185 -0.0356 -0.8544
vn 0.9787 0.0114 0.2051
vn -0.6786 -0.0381 -0.7335
vn -0.0146 -0.7818 -0.6233
vn -0.1356 0.9220 0.3626
vn 0.9698 0.1601 -0.1842
vn -0.4404 -0.8977 -0.0108
vn -0.3918 0.9058 -0.1614
vn 0.0320 0.9453 -0.3246
vn -0.4125 0.9071 -0.0842
vn 0.4697 -0.3961 -0.7890
vn 0.5891 -0.7127 0.3809
vn -0.2858 -0.0270 0.9579
vn 0.1203 0.0677 -0.9904
vn -0.7479 -0.5834 0.3165
vn 0.4909 0.8020 0.3403
vn -0.9439 -0.3295 0.0233
vn 0.3677 0.8845 -0.2872
vn -0.5067 -0.5585 0.6567
vn -0.8941 -0.3131 0.3203
vn -0.5346 -0.0526 -0.8435
vn 0.4099 -0.5744 -0.7086
vn 0.6690 -0.5277 0.5233
vn 0.9253 -0.3713 0.0767
vn 0.9864 -0.0108 0.1641
vn -0.7948 0.4827 -0.3679
vn 0.8396 -0.2056 0.5028
vn 0.9722 0.1634 0.1676
vn 0.1646 0.6004 -0.7826
vn 0.0472 -0.9902 -0.1318
vn -0.2874 0.9487 -0.1321
vn 0.3899 -0.7697 0.5055
vn -0.4297 0.7390 -0.5189
vn -0.5413 -0.2565 0.8007
vn 0.9518 0.3033 -0.0460
vn -0.1586 -0.9868 -0.0314
vn 0.9213 -0.0315 -0.3875
vn 0.0667 -0.8873 -0.4563
vn 0.2696 0.9320 0.2423
vn 0.4270 -0.1405 -0.8933
vn -0.8572 0.2214 -0.4649
vn -0.4447 0.1435 0.8841
vn -0.7075 0.0705 0.7032
vn 0.6396 0.5114 0.5739
vn -0.2944 -0.9547 -0.0440
vn -0.7959 -0.2549 -0.5492
vn 0.1096 0.2918 -0.9502
vn 0.0602 -0.9981 -0.0133
vn 0.6056 0.5479 0.5770
vn 0.9297 0.2988 -0.2154
vn -0.9592 0.2079 0.1915
vn -0.0407 0.9977 0.0535
vn 0.2394 -0.9445 0.2250
vn -0.1322 0.9858 -0.1037
vn 0.9871 0.0665 0.1460
vn -0.4711 0.0322 0.8815
vn 0.0994 -0.9185 -0.3826
vn 0.1745 0.9842 0.0292
vn 0.9493 0.3140 -0.0167
vn -0.9946 0.0701 -0.0771
vn -0.0223 -0.7834 -0.6211
vn -0.6263 0.7616 0.1663
vn 0.3082 -0.8875 0.3426
vn -0.9587 -0.0653 -0.2768
vn -0.3790 0.1087 0.9190
vn -0.3829 -0.9150 -0.1268
vn 0.6187 0.3331 -0.7115
vn -0.1228 0.3405 0.9322
vn 0.0989 0.0739 -0.9923
vn -0.3837 0.9124 -0.1424
vn -0.7006 0.1285 0.7019
vn -0.9625 0.1365 -0.2347
vn 0.5055 0.8527 0.1317
vn -0.6571 -0.7351 -0.1669
vn 0.1425 0.1177 -0.9828
vn 0.5999 0.1169 0.7915
vn 0.0015 0.3133 -0.9497
vn -0.1790 -0.9530 0.2444
vn -0.1937 0.9608 0.1984
vn 0.5923 -0.0268 0.8053
vn -0.6461 -0.4746 -0.5978
vn 0.4099 0.9075 -0.0916
vn 0.3783 0.0460 0.9245
vn 0.8654 0.3962 0.3068
vn 0.8435 -0.2476 0.4767
vn -0.3288 -0.8192 -0.4699
vn 0.8367 -0.0426 -0.5460
vn -0.1601 0.4587 -0.8740
vn 0.2371 0.7746 0.5863
vn -0.2487 -0.2847 0.9258
vn -0.8756 0.4787 -0.0644
vn 0.6065 0.4805 0.6335
vn 0.3443 -0.4912 0.8001
vn 0.9899 -0.1249 -0.0675
vn 0.1577 -0.9451 -0.2861
vn 0.2463 0.9675 -0.0569
vn -0.0726 0.7873 -0.6123
vn -0.7759 0.5957 0.2076
vn -0.2244 0.6175 0.7539
vn -0.7314 -0.5218 0.4391
vn 0.4275 -0.2200 -0.8768
vn -0.7813 0.1565 -0.6042
vn -0.5836 -0.5267 -0.6181
vn -0.0714 -0.8616 0.5025
vn -0.2408 0.7922 0.5607
vn 0.0555 -0.0974 0.9937
vn 0.5612 0.2996 0.7715
vn 0.7262 -0.6048 0.3269
vn -0.2809 0.9126 -0.2971
vn 0.1128 0.7352 -0.6684
vn -0.8753 0.1308 -0.4655
vn -0.9603 0.2575 0.1070
vn -0.4828 -0.8668 0.1243
vn 0.9647 0.2531 0.0721
vn 0.5938 0.7855 0.1743
vn -0.7249 -0.3964 -0.5634
vn -0.1082 0.3549 -0.9286
vn -0.1285 -0.3834 -0.9146
vn 0.2656 -0.8283 -0.4933
vn 0.8531 0.0855 -0.5146
vn -0.0006 -0.7561 0.6545
vn -0.5493 -0.3179 0.7728
vn 0.6205 0.7835 -0.0338
vn 0.6690 -0.1678 -0.7241
vn 0.1243 0.1762 -0.9765
vn -0.2852 -0.6204 -0.7306
vn -0.0230 0.8905 0.4543
vn -0.5422 0.7538 0.3712
vn 0.2995 0.2140 0.9298
vn 0.7598 0.2673 0.5927
vn 0.4754 -0.8595 0.1880
vn -0.6758 0.2203 -0.7034
vn -0.3948 0.8003 -0.4512
vn 0.2285 -0.3567 0.9059
vn -0.5814 0.3945 0.7115
vn -0.6710 -0.2827 0.6855
vn -0.5656 -0.8239 -0.0361
vn -0.9665 0.0947 -0.2385
vn 0.4347 -0.7610 -0.4816
vn 0.9377 -0.3304 -0.1077
vt 0.727273 0.000000
vt 0.835603 0.206465
vt 0.572377 0.139429
vt 0.587013 0.280076
vt 0.237001 0.093477
vt 0.341334 0.274305
vt 0.151765 0.234117
vt 0.551556 0.139429
vt 0.272728 0.393651
vt 0.014940 0.289045
vt 0.089534 0.419556
vt 0.818182 0.393651
vt 0.455640 0.420043
vt 0.932126 0.039899
vt 1.000000 0.157461
vt 0.862985 0.196979
vt 0.000000 0.000000
vt 0.805311 0.137153
vt 0.681408 0.288606
vt 0.318798 0.157461
vt 0.159516 0.274305
vt 0.136980 0.157461
vt 0.523152 0.274305
vt 0.067460 0.431766
vt 0.893102 0.289045
vt 0.648662 0.412450
vt 0.409092 0.393651
vt 0.477581 0.432483
vt 0.136365 0.393651
vt 0.818182 0.236191
vt 0.863935 0.116845
vt 0.363637 0.078731
vt 0.194117 0.059932
vt 0.750000 0.118096
vt 0.659399 0.117562
vt 0.363637 0.236191
vt 0.181819 0.236191
vt 0.545455 0.236191
vt 0.500617 0.157461
vt 0.135748 0.314921
vt 0.317566 0.314921
vt 0.499384 0.314921
vt 0.864253 0.157461
vt 0.522006 0.040616
vt 0.613329 0.117562
vt 0.863636 0.078731
s 1
f 6/1/1 7/2/2 1/3/3
f 1/3/3 7/2/2 3/4/4
f 6/5/1 4/6/5 2/7/6
f 1/8/3 3/4/4 4/6/5
f 2/7/6 4/6/5 5/9/7
f 7/10/2 2/7/6 5/11/7
f 3/4/4 7/2/2 5/12/7
f 4/6/5 3/4/4 5/13/7
f 6/5/1 1/8/3 4/6/5
f 6/14/1 2/15/6 7/16/2
s 0
f 17/17/8 43/17/8 22/17/8
f 8/17/9 28/17/9 27/17/9
f 8/17/10 33/17/10 28/17/10
f 29/17/11 10/17/11 42/17/11
f 10/17/12 14/17/12 42/17/12
f 14/17/13 40/17/13 42/17/13
f 12/17/14 30/17/14 31/17/14
f 30/17/15 33/17/15 8/17/15
f 30/17/16 32/17/16 33/17/16
f 57/17/17 56/17/17 16/17/17
f 9/17/18 14/17/18 10/17/18
f 9/17/19 37/17/19 14/17/19
f 37/17/20 9/17/20 13/17/20
f 9/17/21 32/17/21 13/17/21
f 32/17/22 12/17/22 13/17/22
f 32/17/23 30/17/23 12/17/23
f 57/17/24 45/17/24 58/17/24
f 45/17/25 44/17/25 24/17/25
f 31/17/26 30/17/26 8/17/26
f 33/17/27 32/17/27 11/17/27
f 9/17/28 10/17/28 34/17/28
f 11/17/29 9/17/29 34/17/29
f 34/17/30 33/17/30 11/17/30
f 35/17/31 36/17/31 12/17/31
f 39/17/32 40/17/32 14/17/32
f 39/17/33 37/17/33 38/17/33
f 41/17/34 38/17/34 40/17/34
f 57/17/35 47/17/35 45/17/35
f 46/17/36 47/17/36 48/17/36
f 18/17/37 49/17/37 47/17/37
f 18/17/38 50/17/38 49/17/38
f 52/17/39 55/17/39 51/17/39
f 58/17/40 21/17/40 60/17/40
f 61/17/41 56/17/41 57/17/41
f 60/17/42 56/17/42 59/17/42
f 63/17/43 61/17/43 58/17/43
f 62/17/44 63/17/44 60/17/44
f 64/17/45 62/17/45 59/17/45
f 20/17/46 59/17/46 63/17/46
f 23/17/47 24/17/47 44/17/47
f 67/17/48 24/17/48 23/17/48
f 65/17/49 24/17/49 67/17/49
f 67/17/50 66/17/50 65/17/50
f 68/17/51 25/17/51 71/17/51
f 72/17/52 70/17/52 69/17/52
f 72/17/53 68/17/53 71/17/53
f 73/17/54 71/17/54 70/17/54
f 74/17/55 72/17/55 71/17/55
f 77/17/56 26/17/56 80/17/56
f 79/17/57 76/17/57 78/17/57
f 81/17/58 79/17/58 78/17/58
f 81/17/59 80/17/59 79/17/59
f 15/17/60 16/17/60 56/17/60 21/17/60
f 43/17/61 15/17/61 21/17/61 22/17/61
f 13/17/62 12/17/62 8/17/62 40/17/62
f 27/17/63 42/17/63 40/17/63 8/17/63
f 29/17/64 28/17/64 33/17/64 10/17/64
f 43/17/65 42/17/65 27/17/65 15/17/65
f 36/17/66 8/17/66 12/17/66
f 36/17/67 31/17/67 8/17/67
f 9/17/68 11/17/68 32/17/68
f 33/17/69 34/17/69 10/17/69
f 35/17/70 12/17/70 31/17/70
f 36/17/71 35/17/71 31/17/71
f 39/17/72 14/17/72 37/17/72
f 58/17/73 45/17/73 24/17/73 21/17/73
f 38/17/74 37/17/74 13/17/74
f 40/17/75 38/17/75 13/17/75
f 41/17/76 39/17/76 38/17/76
f 41/17/77 40/17/77 39/17/77
f 15/17/78 27/17/78 28/17/78 16/17/78
f 17/17/79 16/17/79 28/17/79 29/17/79
f 43/17/80 17/17/80 29/17/80 42/17/80
f 18/17/81 75/17/81 44/17/81 46/17/81
f 46/17/82 44/17/82 45/17/82 47/17/82
f 50/17/83 18/17/83 46/17/83 48/17/83
f 57/17/84 75/17/84 18/17/84
f 57/17/85 18/17/85 47/17/85
f 54/17/86 50/17/86 48/17/86 51/17/86
f 47/17/87 49/17/87 48/17/87
f 51/17/88 48/17/88 49/17/88 52/17/88
f 53/17/89 49/17/89 50/17/89 54/17/89
f 49/17/90 53/17/90 52/17/90
f 55/17/91 19/17/91 54/17/91 51/17/91
f 55/17/92 52/17/92 53/17/92 19/17/92
f 62/17/93 64/17/93 20/17/93 63/17/93
f 53/17/94 54/17/94 19/17/94
f 56/17/95 60/17/95 21/17/95
f 61/17/96 57/17/96 58/17/96
f 63/17/97 58/17/97 60/17/97
f 59/17/98 56/17/98 61/17/98
f 62/17/99 60/17/99 59/17/99
f 63/17/100 59/17/100 61/17/100
f 21/17/101 65/17/101 66/17/101 22/17/101
f 20/17/102 64/17/102 59/17/102
f 44/17/103 22/17/103 66/17/103 23/17/103
f 16/17/104 17/17/104 68/17/104 69/17/104
f 65/17/105 21/17/105 24/17/105
f 66/17/106 67/17/106 23/17/106
f 57/17/107 16/17/107 69/17/107 70/17/107
f 75/17/108 57/17/108 70/17/108 25/17/108
f 17/17/109 75/17/109 25/17/109 68/17/109
f 75/17/110 17/17/110 76/17/110 26/17/110
f 70/17/111 71/17/111 25/17/111
f 68/17/112 72/17/112 69/17/112
f 73/17/113 70/17/113 72/17/113
f 73/17/114 74/17/114 71/17/114
f 74/17/115 73/17/115 72/17/115
f 76/17/116 17/17/116 22/17/116
f 75/17/117 26/17/117 77/17/117 44/17/117
f 44/17/118 77/17/118 76/17/118 22/17/118
f 26/17/119 76/17/119 79/17/119 80/17/119
f 78/17/120 77/17/120 80/17/120
f 78/17/121 76/17/121 77/17/121
f 81/17/122 78/17/122 80/17/122
s 1
f 87/1/123 88/2/124 82/3/125
f 82/3/125 88/2/124 84/4/126
f 87/5/123 85/6/127 83/7/128
f 82/8/125 84/4/126 85/6/127
f 83/7/128 85/6/127 86/9/129
f 88/10/124 83/7/128 86/11/129
f 84/4/126 88/2/124 86/12/129
f 85/6/127 84/4/126 86/13/129
f 87/5/123 82/8/125 85/6/127
f 87/14/123 83/15/128 88/16/124
f 95/1/130 98/18/131 89/3/132
f 89/3/132 98/18/131 91/19/133
f 97/20/134 93/6/135 90/21/136
f 96/22/137 90/21/136 99/10/138
f 89/3/132 91/19/133 92/23/139
f 89/8/132 92/23/139 93/6/135
f 90/21/136 93/6/135 101/9/140
f 99/10/138 90/21/136 94/24/141
f 91/19/133 99/25/138 94/12/141
f 92/23/139 91/19/133 94/26/141
f 93/6/135 92/23/139 101/27/140
f 101/27/140 92/23/139 94/28/141
f 94/24/141 90/21/136 101/29/140
f 100/30/142 99/25/138 91/19/133
f 91/19/133 98/18/131 100/30/142
f 100/30/142 98/31/131 99/25/138
f 98/31/131 96/15/137 99/25/138
f 96/22/137 97/20/134 90/21/136
f 97/20/134 89/8/132 93/6/135
f 95/14/130 96/15/137 98/31/131
f 97/20/134 95/32/130 89/8/132
f 95/33/130 97/20/134 96/22/137
f 108/1/143 112/34/144 102/35/145
f 102/35/145 112/34/144 104/19/146
f 110/20/147 114/36/148 115/37/149
f 109/22/150 115/37/149 116/10/151
f 102/35/145 104/19/146 118/38/152
f 113/39/153 118/38/152 114/36/148
f 103/40/154 106/41/155 119/9/156
f 116/10/151 103/40/154 107/24/157
f 104/19/146 116/25/151 107/12/157
f 105/42/158 104/19/146 107/26/157
f 106/41/155 105/42/158 119/27/156
f 119/27/156 105/42/158 107/28/157
f 107/24/157 103/40/154 119/29/156
f 114/36/148 105/42/158 106/41/155
f 114/36/148 118/38/152 105/42/158
f 118/38/152 104/19/146 105/42/158
f 117/30/159 116/25/151 104/19/146
f 116/10/151 115/37/149 103/40/154
f 115/37/149 106/41/155 103/40/154
f 115/37/149 114/36/148 106/41/155
f 113/39/153 102/35/145 118/38/152
f 104/19/146 112/34/144 117/30/159
f 112/34/144 111/43/160 117/30/159
f 117/30/159 111/43/160 116/25/151
f 111/43/160 109/15/150 116/25/151
f 109/22/150 110/20/147 115/37/149
f 110/20/147 113/39/153 114/36/148
f 108/44/143 102/45/145 113/39/153
f 112/46/144 108/14/143 111/43/160
f 108/14/143 109/15/150 111/43/160
f 110/20/147 108/32/143 113/39/153
f 108/33/143 110/20/147 109/22/150
f 126/1/161 130/34/162 120/35/163
f 120/35/163 130/34/162 122/19/164
f 128/20/165 132/36/166 133/37/167
f 127/22/168 133/37/167 134/10/169
f 120/35/163 122/19/164 136/38/170
f 131/39/171 136/38/170 132/36/166
f 121/40/172 124/41/173 137/9/174
f 134/10/169 121/40/172 125/24/175
f 122/19/164 134/25/169 125/12/175
f 123/42/176 122/19/164 125/26/175
f 124/41/173 123/42/176 137/27/174
f 137/27/174 123/42/176 125/28/175
f 125/24/175 121/40/172 137/29/174
f 132/36/166 123/42/176 124/41/173
f 132/36/166 136/38/170 123/42/176
f 136/38/170 122/19/164 123/42/176
f 135/30/177 134/25/169 122/19/164
f 134/10/169 133/37/167 121/40/172
f 133/37/167 124/41/173 121/40/172
f 133/37/167 132/36/166 124/41/173
f 131/39/171 120/35/163 136/38/170
f 122/19/164 130/34/162 135/30/177
f 130/34/162 129/43/178 135/30/177
f 135/30/177 129/43/178 134/25/169
f 129/43/178 127/15/168 134/25/169
f 127/22/168 128/20/165 133/37/167
f 128/20/165 131/39/171 132/36/166
f 126/44/161 120/45/163 131/39/171
f 130/46/162 126/14/161 129/43/178
f 126/14/161 127/15/168 129/43/178
f 128/20/165 126/32/161 131/39/171
f 126/33/161 128/20/165 127/22/168
